<svg xmlns="http://www.w3.org/2000/svg" xmlns:xlink="http://www.w3.org/1999/xlink" viewBox="0 0 159.52 33.27"><defs><clipPath id="clip-path" transform="translate(0 0)"><rect width="159.52" height="33.27" style="fill:none"/></clipPath></defs><g id="圖層_2" data-name="圖層 2"><g id="圖層_1-2" data-name="圖層 1"><g style="clip-path:url(#clip-path)"><path d="M88.65,13.8l-.14.15H99.83l.86-4-.22.2a8.21,8.21,0,0,1-6.3,2.45h-2V2.43a2.68,2.68,0,0,1,.75-2.2L93.1.06H88.62l.16.17a2.82,2.82,0,0,1,.75,2.2v8.31c0,1.89-.42,2.53-.88,3.06" transform="translate(0 0)" style="fill:#fff"/><path d="M57.45,13.79l-.16.16H61.9l-.16-.16c-.61-.61-.82-1.14-.82-3.11V2.43a2.65,2.65,0,0,1,.94-2.2l.2-.17H58.24l-5.4,10.67L47.47.12l0-.06H43.57l.18.17a2.53,2.53,0,0,1,.94,2.2v8.31c0,2.11-.47,2.59-.94,3l-.16.16h3.52l-.18-.16c-.55-.49-.81-.95-.81-3V3L51.59,13.9l0,0h1.15l5.5-10.74v7.47c0,2-.21,2.5-.82,3.11" transform="translate(0 0)" style="fill:#fff"/><path d="M5.91.23c.94.75.94,1.77.94,2.85V9.77c0,1.1-.34,3-2.64,3-1.59,0-2.62-.92-4-2.31L0,10.23l.36,3.18.06,0a12.2,12.2,0,0,0,3.92.65c3.38,0,5.16-1.49,5.16-4.31V3.08C9.5,2,9.5,1,10.44.23l.21-.16H5.7Z" transform="translate(0 0)" style="fill:#fff"/><path d="M24.51,0c-4.42,0-7.75,3-7.75,7,0,4.31,3,7.1,7.62,7.1S32,11.23,32,7s-3.08-7-7.5-7m-.06,12.73c-2.86,0-4.78-2.31-4.78-5.75s1.88-5.62,4.78-5.62S29.09,3.56,29.09,7s-1.86,5.75-4.64,5.75" transform="translate(0 0)" style="fill:#fff"/><path d="M159.31,10.42a7.79,7.79,0,0,1-6.11,2.18h-2.37V7.27h4.9l.53-1.36h-5.43V1.42H153c2.29,0,3.34,0,5.59,1.93l.2.17L158.15.07H147.21l.14.15c.55.61.82,1.21.82,2.86v7.86a3.81,3.81,0,0,1-.75,2.86l-.13.16H158.8l.72-3.74Z" transform="translate(0 0)" style="fill:#fff"/><path d="M113.21,0c-4.42,0-7.75,3-7.75,7,0,4.31,3,7.1,7.63,7.1s7.62-2.85,7.62-7.1-3.08-7-7.5-7m-.06,12.73c-2.9,0-4.78-2.26-4.78-5.75s1.88-5.62,4.78-5.62,4.64,2.2,4.64,5.62-1.86,5.75-4.64,5.75" transform="translate(0 0)" style="fill:#fff"/><path d="M137.83.23c.65.65.94,1.22.94,2.91v7.1L129.85.1l0,0h-3.39l.16.16a3.37,3.37,0,0,1,1.15,2.85v7.73a3.73,3.73,0,0,1-1.08,3l-.15.16h3.74l-.14-.16a3.66,3.66,0,0,1-1-3V2.94l9.52,11,0,0h1.5V3.14a3.51,3.51,0,0,1,.95-2.91l.16-.16h-3.63Z" transform="translate(0 0)" style="fill:#fff"/><path d="M81.08,10.9,76.22.12l0-.06H74.32L69.55,10.38a9.32,9.32,0,0,1-2.37,3.41L67,14h4.26l-.14-.15c-.55-.62-.57-1.62,0-2.82l.43-1h6.37l.5,1.12a2.93,2.93,0,0,1-.13,2.71l-.07.13h5.17l-.22-.16a8.13,8.13,0,0,1-2-2.89m-8.9-2.59,2.46-5.64,2.45,5.64Z" transform="translate(0 0)" style="fill:#fff"/><path d="M53.24,32.33H51.86V28.09a2.07,2.07,0,0,1,.44-1.59l.06-.08H50.28l0,.08A2.06,2.06,0,0,1,50.71,28v3.9a1.87,1.87,0,0,1-.37,1.26l-.08.08h5.35L56,31.06l-.11.12a3.24,3.24,0,0,1-2.62,1.15" transform="translate(0 0)" style="fill:#fff"/><path d="M64.14,26.36a3.93,3.93,0,0,0-2.61.93,3.26,3.26,0,0,0-1.14,2.56A3.42,3.42,0,0,0,64,33.27a3.48,3.48,0,0,0,3.75-3.49,3.41,3.41,0,0,0-3.62-3.42m-.07,6a2.32,2.32,0,0,1-2.29-2.55,2.32,2.32,0,0,1,2.29-2.62,2.25,2.25,0,0,1,2.3,2.55,2.35,2.35,0,0,1-2.3,2.62" transform="translate(0 0)" style="fill:#fff"/><path d="M111.2,26.5a2.12,2.12,0,0,1,.5,1.59v3l-4.07-4.65v0h-1.71l.1.09a1.67,1.67,0,0,1,.63,1.45v3.9a1.73,1.73,0,0,1-.51,1.26l-.08.08h2l-.08-.08a1.71,1.71,0,0,1-.44-1.26V28.15l4.4,5h.67V28.09A2.26,2.26,0,0,1,113,26.5l.07-.08h-2Z" transform="translate(0 0)" style="fill:#fff"/><path d="M86.33,26.42H83.69l.07.08a2.29,2.29,0,0,1,.44,1.72v3.57a1.83,1.83,0,0,1-.43,1.33l-.13.08h2.69a4.08,4.08,0,0,0,2.56-.87,3.18,3.18,0,0,0,1.18-2.55c0-2.31-1.94-3.36-3.74-3.36m0,6h-.8V27.23h.8a2.33,2.33,0,0,1,2.42,2.55,2.39,2.39,0,0,1-2.42,2.62" transform="translate(0 0)" style="fill:#fff"/><path d="M98.1,26.36a4,4,0,0,0-2.61.93,3.26,3.26,0,0,0-1.14,2.56A3.42,3.42,0,0,0,98,33.27a3.51,3.51,0,0,0,3.75-3.49,3.41,3.41,0,0,0-3.62-3.42m-.06,6a2.33,2.33,0,0,1-2.3-2.55A2.32,2.32,0,0,1,98,27.23c1.45,0,2.28.93,2.28,2.55S99.43,32.4,98,32.4" transform="translate(0 0)" style="fill:#fff"/><path d="M77.31,26.5a2.42,2.42,0,0,1,.45,1.72V31l-4-4.58v0H72l.11.09a1.57,1.57,0,0,1,.7,1.45v3.9a1.73,1.73,0,0,1-.51,1.26l-.08.08h2l-.08-.08a1.71,1.71,0,0,1-.44-1.26V28.15l4.34,5h.66v-5a2.45,2.45,0,0,1,.44-1.72l.07-.08H77.25Z" transform="translate(0 0)" style="fill:#fff"/></g></g></g></svg>